# Blender v2.92.0 OBJ File: 'pino.blend'
# www.blender.org
mtllib pino.mtl
o Cilindro
v -0.000000 0.676339 -2.054420
v 0.000000 8.384233 -0.009542
v 1.021703 0.926320 -1.406254
v 0.005609 8.384233 -0.007720
v 1.953870 0.676339 -0.634851
v 0.009075 8.384233 -0.002949
v 1.653150 0.926320 0.537141
v 0.009075 8.384233 0.002949
v 1.207558 0.676339 1.662061
v 0.005609 8.384233 0.007720
v 0.002715 1.078539 1.744197
v 0.000000 8.384233 0.009542
v -1.209386 0.573660 1.658002
v -0.005609 8.384233 0.007720
v -1.765305 0.997187 0.381847
v -0.009075 8.384233 0.002949
v -1.973232 0.662146 -0.643841
v -0.009075 8.384233 -0.002949
v -1.032749 0.907962 -1.463036
v -0.005609 8.384233 -0.007720
v -0.000000 1.919324 -1.713896
v 0.128926 3.312644 -1.557940
v 0.033815 4.393328 -1.187282
v 0.039378 5.668458 -0.848456
v 0.000903 6.904033 -0.402235
v 0.167549 7.134318 -0.258586
v 0.364207 5.910425 -0.554178
v 0.521262 4.655750 -0.739514
v 0.695387 3.416606 -0.953567
v 0.852354 2.169306 -1.173165
v 0.326573 6.882697 -0.121282
v 0.662377 5.651624 -0.226176
v 0.956950 4.459654 -0.308521
v 1.374058 3.087542 -0.450279
v 1.868892 1.823505 -0.623425
v 0.259338 7.096121 0.145218
v 0.544367 5.898444 0.178678
v 0.780028 4.830085 0.312768
v 1.114054 3.402891 0.356169
v 1.250264 2.258470 0.498099
v 0.170995 6.837738 0.356294
v 0.388108 5.648180 0.556720
v 0.681851 4.406707 0.853089
v 0.869616 3.093636 1.087308
v 1.007403 1.919324 1.386572
v -0.039524 7.064835 0.409902
v -0.041049 5.898849 0.578243
v 0.047281 4.630675 0.881182
v -0.000704 3.402832 1.179216
v -0.000000 2.169306 1.450111
v -0.245592 6.831026 0.380917
v -0.438513 5.648733 0.554314
v -0.605674 4.404548 0.835989
v -0.887357 3.083185 1.402349
v -1.007403 1.919324 1.386571
v -0.311803 7.084967 0.186064
v -0.580239 5.890208 0.172246
v -0.831113 4.655276 0.270045
v -1.110202 3.407277 0.377536
v -1.379138 2.169306 0.448109
v -0.350123 6.866985 -0.063032
v -0.659925 5.632579 -0.238585
v -0.978927 4.392030 -0.343058
v -1.307251 3.172862 -0.413592
v -1.630012 1.919324 -0.529623
v -0.185922 7.126345 -0.229095
v -0.324726 5.883715 -0.574217
v -0.490359 4.603397 -0.843649
v -0.678655 3.458608 -0.914106
v -0.852368 2.169442 -1.173025
v 0.651851 2.203707 -0.897196
v 1.105884 2.185305 -0.362825
v 0.960901 2.268615 0.379090
v 0.644570 2.208737 0.900020
v -0.000000 2.203707 1.108995
v -0.651858 2.203699 0.897223
v -1.054716 2.203707 0.342698
v -1.054716 2.203707 -0.342698
v -0.651927 2.204448 -0.896437
v 0.000012 2.203721 -1.109012
v 0.050722 3.529883 -0.950622
v 0.529650 3.458856 -0.726447
v 0.873055 3.425677 -0.285207
v 0.853410 3.449041 0.273902
v 0.557260 3.423127 0.712568
v 0.002305 3.448908 0.899577
v -0.554893 3.423928 0.836425
v -0.848665 3.453298 0.285525
v -0.847570 3.472843 -0.257261
v -0.521569 3.493779 -0.692458
v 0.024174 4.670093 -0.793158
v 0.400472 4.695410 -0.570884
v 0.600038 4.784653 -0.188658
v 0.593559 4.850197 0.245865
v 0.416242 4.755985 0.568336
v 0.041458 4.675154 0.679615
v -0.388308 4.690725 0.545527
v -0.638889 4.693403 0.206131
v -0.632964 4.668823 -0.251787
v -0.374260 4.647263 -0.665736
v 0.024138 5.950624 -0.566014
v 0.280086 5.956416 -0.440094
v 0.426040 5.952479 -0.161084
v 0.412027 5.949895 0.136357
v 0.235323 5.950089 0.359913
v -0.040060 5.950216 0.444366
v -0.302901 5.947829 0.357318
v -0.455782 5.938351 0.128448
v -0.438000 5.929461 -0.177643
v -0.251815 5.934970 -0.457092
v -0.010863 7.181476 -0.231867
v 0.125098 7.178833 -0.186512
v 0.204316 7.165915 -0.046936
v 0.196401 7.147643 0.130716
v 0.103950 7.130701 0.278436
v -0.037170 7.122120 0.341013
v -0.172184 7.125772 0.296385
v -0.250882 7.138628 0.163666
v -0.243387 7.155987 -0.010495
v -0.151689 7.172512 -0.163233
vt 1.000000 0.916667
vt 1.000000 1.000000
vt 0.900000 1.000000
vt 0.900000 0.916667
vt 0.800000 1.000000
vt 0.800000 0.916667
vt 0.700000 1.000000
vt 0.700000 0.916667
vt 0.600000 1.000000
vt 0.600000 0.916667
vt 0.500000 1.000000
vt 0.500000 0.916667
vt 0.400000 1.000000
vt 0.400000 0.916667
vt 0.300000 1.000000
vt 0.300000 0.916667
vt 0.200000 1.000000
vt 0.200000 0.916667
vt 0.391068 0.444164
vt 0.250000 0.490000
vt 0.108932 0.444164
vt 0.021746 0.324164
vt 0.021746 0.175836
vt 0.108932 0.055836
vt 0.250000 0.010000
vt 0.391068 0.055836
vt 0.478254 0.175836
vt 0.478254 0.324164
vt 0.100000 1.000000
vt 0.100000 0.916667
vt -0.000000 1.000000
vt -0.000000 0.916667
vt 0.750000 0.490000
vt 0.891068 0.444164
vt 0.978254 0.324164
vt 0.978254 0.175836
vt 0.891068 0.055836
vt 0.750000 0.010000
vt 0.608932 0.055836
vt 0.521746 0.175836
vt 0.521746 0.324164
vt 0.608932 0.444164
vt 0.100000 0.579023
vt 0.100000 0.583333
vt -0.000000 0.583333
vt -0.000000 0.579023
vt 0.100000 0.662960
vt 0.100000 0.666667
vt -0.000000 0.666667
vt -0.000000 0.662960
vt 0.100000 0.745998
vt 0.100000 0.750000
vt -0.000000 0.750000
vt -0.000000 0.745998
vt 0.100000 0.830162
vt 0.100000 0.833333
vt -0.000000 0.833333
vt -0.000000 0.830162
vt 0.100000 0.913709
vt -0.000000 0.913709
vt 0.200000 0.579023
vt 0.200000 0.583333
vt 0.200000 0.662960
vt 0.200000 0.666667
vt 0.200000 0.745999
vt 0.200000 0.750000
vt 0.200000 0.830162
vt 0.200000 0.833333
vt 0.200000 0.913709
vt 0.300000 0.579023
vt 0.300000 0.583333
vt 0.300000 0.662960
vt 0.300000 0.666667
vt 0.300000 0.745998
vt 0.300000 0.750000
vt 0.300000 0.830162
vt 0.300000 0.833333
vt 0.300000 0.913709
vt 0.400000 0.579023
vt 0.400000 0.583333
vt 0.400000 0.662960
vt 0.400000 0.666667
vt 0.400000 0.745998
vt 0.400000 0.750000
vt 0.400000 0.830162
vt 0.400000 0.833333
vt 0.400000 0.913709
vt 0.500000 0.579023
vt 0.500000 0.583333
vt 0.500000 0.662960
vt 0.500000 0.666667
vt 0.500000 0.745998
vt 0.500000 0.750000
vt 0.500000 0.830162
vt 0.500000 0.833333
vt 0.500000 0.913709
vt 0.600000 0.579023
vt 0.600000 0.583333
vt 0.600000 0.662960
vt 0.600000 0.666667
vt 0.600000 0.745998
vt 0.600000 0.750000
vt 0.600000 0.830162
vt 0.600000 0.833333
vt 0.600000 0.913709
vt 0.700000 0.579023
vt 0.700000 0.583333
vt 0.700000 0.662960
vt 0.700000 0.666667
vt 0.700000 0.745998
vt 0.700000 0.750000
vt 0.700000 0.830162
vt 0.700000 0.833333
vt 0.700000 0.913709
vt 0.800000 0.579023
vt 0.800000 0.583333
vt 0.800000 0.662960
vt 0.800000 0.666667
vt 0.800000 0.745999
vt 0.800000 0.750000
vt 0.800000 0.830162
vt 0.800000 0.833333
vt 0.800000 0.913709
vt 0.900000 0.579023
vt 0.900000 0.583333
vt 0.900000 0.662960
vt 0.900000 0.666667
vt 0.900000 0.745999
vt 0.900000 0.750000
vt 0.900000 0.830162
vt 0.900000 0.833333
vt 0.900000 0.913709
vt 1.000000 0.579023
vt 1.000000 0.583333
vt 1.000000 0.662960
vt 1.000000 0.666667
vt 1.000000 0.745998
vt 1.000000 0.750000
vt 1.000000 0.830162
vt 1.000000 0.833333
vt 1.000000 0.913709
vt 1.000000 0.500000
vt 0.900000 0.500000
vt 0.800000 0.500000
vt 0.700000 0.500000
vt 0.600000 0.500000
vt 0.500000 0.500000
vt 0.400000 0.500000
vt 0.300000 0.500000
vt 0.200000 0.500000
vt 0.100000 0.500000
vt -0.000000 0.500000
vn 0.4283 0.2315 -0.8735
vn 0.8097 0.2144 -0.5463
vn 0.9762 0.1994 0.0847
vn 0.7781 0.2162 0.5898
vn 0.4720 0.2423 0.8477
vn -0.4276 0.2736 0.8616
vn -0.7590 0.2608 0.5966
vn -0.9744 0.2209 -0.0424
vn 0.0000 1.0000 0.0001
vn -0.8374 0.2086 -0.5052
vn -0.5045 0.2203 -0.8348
vn 0.0013 -0.9999 0.0135
vn 0.0124 -0.9410 0.3381
vn 0.1072 -0.9539 0.2803
vn 0.0666 -0.8756 0.4784
vn 0.1331 -0.7703 0.6236
vn 0.1973 -0.5869 0.7852
vn 0.3179 -0.9410 0.1163
vn 0.4131 -0.9020 0.1258
vn 0.4727 -0.8562 0.2085
vn 0.6623 -0.6989 0.2698
vn 0.8440 -0.4552 0.2836
vn 0.3251 -0.9412 0.0924
vn 0.4251 -0.9014 0.0828
vn 0.4919 -0.8549 0.1646
vn 0.6864 -0.6990 0.2006
vn 0.8834 -0.4451 0.1466
vn 0.2087 -0.9412 -0.2659
vn 0.2707 -0.9165 -0.2944
vn 0.3225 -0.8538 -0.4086
vn 0.4853 -0.7137 -0.5051
vn 0.6324 -0.4396 -0.6378
vn 0.1884 -0.9412 -0.2806
vn 0.1808 -0.9195 -0.3489
vn 0.2427 -0.8503 -0.4671
vn 0.3720 -0.7098 -0.5982
vn 0.4610 -0.4360 -0.7729
vn -0.1865 -0.9399 -0.2860
vn -0.2810 -0.8837 -0.3744
vn -0.1913 -0.8123 -0.5510
vn -0.3461 -0.7161 -0.6062
vn -0.5060 -0.4111 -0.7582
vn -0.1347 -0.9381 -0.3190
vn -0.2755 -0.8829 -0.3803
vn -0.2252 -0.8021 -0.5531
vn -0.4372 -0.7187 -0.5407
vn -0.6436 -0.4152 -0.6429
vn -0.3144 -0.9400 0.1326
vn -0.4351 -0.8907 0.1318
vn -0.5006 -0.8273 0.2547
vn -0.6817 -0.7213 0.1227
vn -0.8676 -0.4924 0.0696
vn -0.3203 -0.9398 0.1188
vn -0.4339 -0.8919 0.1274
vn -0.4792 -0.8369 0.2644
vn -0.6733 -0.7164 0.1826
vn -0.8283 -0.5149 0.2208
vn -0.0126 -0.9411 0.3378
vn -0.1666 -0.9543 0.2481
vn -0.0766 -0.8766 0.4751
vn -0.1136 -0.7792 0.6164
vn -0.0410 -0.6054 0.7948
vn 0.3479 0.4673 -0.8128
vn 0.6556 0.4554 -0.6024
vn 0.8753 0.4679 0.1223
vn 0.7617 0.4740 0.4418
vn 0.2374 0.4912 0.8381
vn -0.2634 0.4777 0.8381
vn -0.7342 0.4672 0.4926
vn -0.8604 0.5096 0.0048
vn -0.6687 0.4798 -0.5680
vn -0.3230 0.4802 -0.8155
vn 0.4211 0.3826 -0.8224
vn 0.6040 0.4533 -0.6555
vn 0.8772 0.4286 0.2163
vn 0.8060 0.3991 0.4371
vn 0.2157 0.4221 0.8805
vn -0.1413 0.3838 0.9125
vn -0.8083 0.3962 0.4355
vn -0.9055 0.4156 0.0858
vn -0.6848 0.4206 -0.5950
vn -0.4015 0.4011 -0.8233
vn 0.5732 0.3985 -0.7160
vn 0.7057 0.3826 -0.5963
vn 0.9229 0.3760 0.0828
vn 0.8163 0.3488 0.4604
vn 0.2127 0.3469 0.9135
vn -0.0388 0.4317 0.9012
vn -0.8249 0.4136 0.3853
vn -0.9228 0.3802 0.0624
vn -0.7203 0.3537 -0.5967
vn -0.4771 0.3570 -0.8031
vn 0.5109 0.3039 -0.8041
vn 0.7773 0.3030 -0.5514
vn 0.9433 0.3253 0.0658
vn 0.7930 0.3651 0.4877
vn 0.1967 0.3359 0.9211
vn -0.2116 0.3121 0.9262
vn -0.8215 0.3031 0.4830
vn -0.9503 0.3083 0.0431
vn -0.7593 0.3158 -0.5690
vn -0.4028 0.3298 -0.8538
vn 0.4371 0.3401 -0.8326
vn 0.8200 0.3011 -0.4868
vn 0.9565 0.2743 0.0992
vn 0.8194 0.2511 0.5153
vn 0.2274 0.2049 0.9520
vn -0.2143 0.1969 0.9567
vn -0.8475 0.2319 0.4775
vn -0.9658 0.2589 0.0129
vn -0.7936 0.2882 -0.5358
vn -0.4360 0.3267 -0.8386
usemtl PINO
s off
f 25/1/1 2/2/1 4/3/1 26/4/1
f 26/4/2 4/3/2 6/5/2 31/6/2
f 31/6/3 6/5/3 8/7/3 36/8/3
f 36/8/4 8/7/4 10/9/4 41/10/4
f 41/10/5 10/9/5 12/11/5 46/12/5
f 46/12/6 12/11/6 14/13/6 51/14/6
f 51/14/7 14/13/7 16/15/7 56/16/7
f 56/16/8 16/15/8 18/17/8 61/18/8
f 4/19/9 2/20/9 20/21/9 18/22/9 16/23/9 14/24/9 12/25/9 10/26/9 8/27/9 6/28/9
f 61/18/10 18/17/10 20/29/10 66/30/10
f 66/30/11 20/29/11 2/31/11 25/32/11
f 1/33/12 3/34/12 5/35/12 7/36/12 9/37/12 11/38/12 13/39/12 15/40/12 17/41/12 19/42/12
f 79/43/13 70/44/13 21/45/13 80/46/13
f 90/47/14 69/48/14 22/49/14 81/50/14
f 100/51/15 68/52/15 23/53/15 91/54/15
f 110/55/16 67/56/16 24/57/16 101/58/16
f 120/59/17 66/30/17 25/32/17 111/60/17
f 78/61/18 65/62/18 70/44/18 79/43/18
f 89/63/19 64/64/19 69/48/19 90/47/19
f 99/65/20 63/66/20 68/52/20 100/51/20
f 109/67/21 62/68/21 67/56/21 110/55/21
f 119/69/22 61/18/22 66/30/22 120/59/22
f 77/70/23 60/71/23 65/62/23 78/61/23
f 88/72/24 59/73/24 64/64/24 89/63/24
f 98/74/25 58/75/25 63/66/25 99/65/25
f 108/76/26 57/77/26 62/68/26 109/67/26
f 118/78/27 56/16/27 61/18/27 119/69/27
f 76/79/28 55/80/28 60/71/28 77/70/28
f 87/81/29 54/82/29 59/73/29 88/72/29
f 97/83/30 53/84/30 58/75/30 98/74/30
f 107/85/31 52/86/31 57/77/31 108/76/31
f 117/87/32 51/14/32 56/16/32 118/78/32
f 75/88/33 50/89/33 55/80/33 76/79/33
f 86/90/34 49/91/34 54/82/34 87/81/34
f 96/92/35 48/93/35 53/84/35 97/83/35
f 106/94/36 47/95/36 52/86/36 107/85/36
f 116/96/37 46/12/37 51/14/37 117/87/37
f 74/97/38 45/98/38 50/89/38 75/88/38
f 85/99/39 44/100/39 49/91/39 86/90/39
f 95/101/40 43/102/40 48/93/40 96/92/40
f 105/103/41 42/104/41 47/95/41 106/94/41
f 115/105/42 41/10/42 46/12/42 116/96/42
f 73/106/43 40/107/43 45/98/43 74/97/43
f 84/108/44 39/109/44 44/100/44 85/99/44
f 94/110/45 38/111/45 43/102/45 95/101/45
f 104/112/46 37/113/46 42/104/46 105/103/46
f 114/114/47 36/8/47 41/10/47 115/105/47
f 72/115/48 35/116/48 40/107/48 73/106/48
f 83/117/49 34/118/49 39/109/49 84/108/49
f 93/119/50 33/120/50 38/111/50 94/110/50
f 103/121/51 32/122/51 37/113/51 104/112/51
f 113/123/52 31/6/52 36/8/52 114/114/52
f 71/124/53 30/125/53 35/116/53 72/115/53
f 82/126/54 29/127/54 34/118/54 83/117/54
f 92/128/55 28/129/55 33/120/55 93/119/55
f 102/130/56 27/131/56 32/122/56 103/121/56
f 112/132/57 26/4/57 31/6/57 113/123/57
f 80/133/58 21/134/58 30/125/58 71/124/58
f 81/135/59 22/136/59 29/127/59 82/126/59
f 91/137/60 23/138/60 28/129/60 92/128/60
f 101/139/61 24/140/61 27/131/61 102/130/61
f 111/141/62 25/1/62 26/4/62 112/132/62
f 1/142/63 80/133/63 71/124/63 3/143/63
f 3/143/64 71/124/64 72/115/64 5/144/64
f 5/144/65 72/115/65 73/106/65 7/145/65
f 7/145/66 73/106/66 74/97/66 9/146/66
f 9/146/67 74/97/67 75/88/67 11/147/67
f 11/147/68 75/88/68 76/79/68 13/148/68
f 13/148/69 76/79/69 77/70/69 15/149/69
f 15/149/70 77/70/70 78/61/70 17/150/70
f 17/150/71 78/61/71 79/43/71 19/151/71
f 19/151/72 79/43/72 80/46/72 1/152/72
f 21/134/73 81/135/73 82/126/73 30/125/73
f 30/125/74 82/126/74 83/117/74 35/116/74
f 35/116/75 83/117/75 84/108/75 40/107/75
f 40/107/76 84/108/76 85/99/76 45/98/76
f 45/98/77 85/99/77 86/90/77 50/89/77
f 50/89/78 86/90/78 87/81/78 55/80/78
f 55/80/79 87/81/79 88/72/79 60/71/79
f 60/71/80 88/72/80 89/63/80 65/62/80
f 65/62/81 89/63/81 90/47/81 70/44/81
f 70/44/82 90/47/82 81/50/82 21/45/82
f 22/136/83 91/137/83 92/128/83 29/127/83
f 29/127/84 92/128/84 93/119/84 34/118/84
f 34/118/85 93/119/85 94/110/85 39/109/85
f 39/109/86 94/110/86 95/101/86 44/100/86
f 44/100/87 95/101/87 96/92/87 49/91/87
f 49/91/88 96/92/88 97/83/88 54/82/88
f 54/82/89 97/83/89 98/74/89 59/73/89
f 59/73/90 98/74/90 99/65/90 64/64/90
f 64/64/91 99/65/91 100/51/91 69/48/91
f 69/48/92 100/51/92 91/54/92 22/49/92
f 23/138/93 101/139/93 102/130/93 28/129/93
f 28/129/94 102/130/94 103/121/94 33/120/94
f 33/120/95 103/121/95 104/112/95 38/111/95
f 38/111/96 104/112/96 105/103/96 43/102/96
f 43/102/97 105/103/97 106/94/97 48/93/97
f 48/93/98 106/94/98 107/85/98 53/84/98
f 53/84/99 107/85/99 108/76/99 58/75/99
f 58/75/100 108/76/100 109/67/100 63/66/100
f 63/66/101 109/67/101 110/55/101 68/52/101
f 68/52/102 110/55/102 101/58/102 23/53/102
f 24/140/103 111/141/103 112/132/103 27/131/103
f 27/131/104 112/132/104 113/123/104 32/122/104
f 32/122/105 113/123/105 114/114/105 37/113/105
f 37/113/106 114/114/106 115/105/106 42/104/106
f 42/104/107 115/105/107 116/96/107 47/95/107
f 47/95/108 116/96/108 117/87/108 52/86/108
f 52/86/109 117/87/109 118/78/109 57/77/109
f 57/77/110 118/78/110 119/69/110 62/68/110
f 62/68/111 119/69/111 120/59/111 67/56/111
f 67/56/112 120/59/112 111/60/112 24/57/112
o Cilindro.001
v 0.000000 -0.041682 -0.506816
v -0.000000 0.434481 -0.328153
v 0.297899 -0.041682 -0.410023
v 0.192884 0.434481 -0.265481
v 0.482010 -0.041682 -0.156615
v 0.312092 0.434481 -0.101405
v 0.482010 -0.041682 0.156615
v 0.312092 0.434481 0.101405
v 0.297899 -0.041682 0.410023
v 0.192883 0.434481 0.265481
v -0.000000 -0.041682 0.506816
v -0.000000 0.434481 0.328153
v -0.297899 -0.041682 0.410023
v -0.192884 0.434481 0.265481
v -0.482010 -0.041682 0.156615
v -0.312092 0.434481 0.101405
v -0.482010 -0.041682 -0.156615
v -0.312092 0.434481 -0.101405
v -0.297899 -0.041682 -0.410023
v -0.192883 0.434481 -0.265481
v 0.000000 1.621143 -0.159206
v 0.093579 1.621143 -0.128800
v 0.151414 1.621143 -0.049197
v 0.151414 1.621143 0.049197
v 0.093579 1.621143 0.128800
v -0.000000 1.621143 0.159206
v -0.093579 1.621143 0.128800
v -0.151414 1.621143 0.049197
v -0.151414 1.621143 -0.049197
v -0.093579 1.621143 -0.128801
vt 1.000000 0.500000
vt 1.000000 1.000000
vt 0.900000 1.000000
vt 0.900000 0.500000
vt 0.800000 1.000000
vt 0.800000 0.500000
vt 0.700000 1.000000
vt 0.700000 0.500000
vt 0.600000 1.000000
vt 0.600000 0.500000
vt 0.500000 1.000000
vt 0.500000 0.500000
vt 0.400000 1.000000
vt 0.400000 0.500000
vt 0.300000 1.000000
vt 0.300000 0.500000
vt 0.200000 1.000000
vt 0.200000 0.500000
vt 0.700000 1.000000
vt 0.600000 1.000000
vt 0.100000 1.000000
vt 0.100000 0.500000
vt -0.000000 1.000000
vt -0.000000 0.500000
vt 0.750000 0.490000
vt 0.891068 0.444164
vt 0.978254 0.324164
vt 0.978254 0.175836
vt 0.891068 0.055836
vt 0.750000 0.010000
vt 0.608932 0.055836
vt 0.521746 0.175836
vt 0.521746 0.324164
vt 0.608932 0.444164
vt 0.391068 0.444164
vt 0.250000 0.490000
vt 0.108932 0.444164
vt 0.021746 0.324164
vt 0.021746 0.175836
vt 0.108932 0.055836
vt 0.250000 0.010000
vt 0.391068 0.055836
vt 0.478254 0.175836
vt 0.478254 0.324164
vt 1.000000 1.000000
vt 0.900000 1.000000
vt 0.800000 1.000000
vt 0.100000 1.000000
vt -0.000000 1.000000
vt 0.200000 1.000000
vt 0.300000 1.000000
vt 0.400000 1.000000
vt 0.500000 1.000000
vn 0.2910 0.3361 -0.8957
vn 0.7620 0.3361 -0.5536
vn 0.9418 0.3361 0.0000
vn 0.7620 0.3361 0.5536
vn 0.2910 0.3361 0.8957
vn -0.2910 0.3361 0.8957
vn -0.7620 0.3361 0.5536
vn -0.9418 0.3361 0.0000
vn 0.8017 0.1342 0.5825
vn -0.7620 0.3361 -0.5536
vn -0.2910 0.3361 -0.8957
vn 0.0000 -1.0000 0.0000
vn 0.0000 1.0000 0.0000
vn 0.3062 0.1342 -0.9425
vn 0.9910 0.1342 0.0000
vn 0.8017 0.1342 -0.5825
vn -0.3062 0.1342 -0.9425
vn -0.8017 0.1342 -0.5825
vn -0.9910 0.1342 0.0000
vn -0.8017 0.1342 0.5825
vn -0.3062 0.1342 0.9425
vn 0.3062 0.1342 0.9425
usemtl TRONCO_PINO
s off
f 121/153/113 122/154/113 124/155/113 123/156/113
f 123/156/114 124/155/114 126/157/114 125/158/114
f 125/158/115 126/157/115 128/159/115 127/160/115
f 127/160/116 128/159/116 130/161/116 129/162/116
f 129/162/117 130/161/117 132/163/117 131/164/117
f 131/164/118 132/163/118 134/165/118 133/166/118
f 133/166/119 134/165/119 136/167/119 135/168/119
f 135/168/120 136/167/120 138/169/120 137/170/120
f 130/161/121 128/159/121 144/171/121 145/172/121
f 137/170/122 138/169/122 140/173/122 139/174/122
f 139/174/123 140/173/123 122/175/123 121/176/123
f 121/177/124 123/178/124 125/179/124 127/180/124 129/181/124 131/182/124 133/183/124 135/184/124 137/185/124 139/186/124
f 142/187/125 141/188/125 150/189/125 149/190/125 148/191/125 147/192/125 146/193/125 145/194/125 144/195/125 143/196/125
f 124/155/126 122/154/126 141/197/126 142/198/126
f 128/159/127 126/157/127 143/199/127 144/171/127
f 126/157/128 124/155/128 142/198/128 143/199/128
f 122/175/129 140/173/129 150/200/129 141/201/129
f 140/173/130 138/169/130 149/202/130 150/200/130
f 138/169/131 136/167/131 148/203/131 149/202/131
f 136/167/132 134/165/132 147/204/132 148/203/132
f 134/165/133 132/163/133 146/205/133 147/204/133
f 132/163/134 130/161/134 145/172/134 146/205/134
